<?xml version="1.0" standalone="no"?>
<!DOCTYPE svg PUBLIC "-//W3C//DTD SVG 20010904//EN"
 "http://www.w3.org/TR/2001/REC-SVG-20010904/DTD/svg10.dtd">
<svg version="1.0" xmlns="http://www.w3.org/2000/svg"
 width="900.000000pt" height="900.000000pt" viewBox="0 0 900.000000 900.000000"
 preserveAspectRatio="xMidYMid meet">
<metadata>
Created by potrace 1.11, written by Peter Selinger 2001-2013
</metadata>
<g transform="translate(0.000000,900.000000) scale(0.100000,-0.100000)"
fill="#000000" stroke="none">
<path d="M4351 8701 c-5 -9 -95 -218 -200 -466 -106 -247 -198 -463 -206 -480
-7 -16 -43 -102 -80 -190 -37 -88 -78 -184 -91 -213 -13 -29 -24 -55 -24 -57
0 -2 -12 -30 -26 -62 -14 -32 -30 -67 -35 -78 -42 -101 -104 -246 -115 -270
-7 -16 -106 -248 -219 -515 -114 -267 -215 -503 -225 -525 -9 -22 -34 -80 -55
-130 -20 -49 -45 -108 -55 -130 -10 -22 -37 -85 -60 -140 -23 -55 -48 -113
-56 -130 -7 -16 -61 -142 -119 -280 -59 -137 -112 -263 -120 -280 -7 -16 -52
-122 -100 -235 -48 -113 -93 -218 -100 -235 -8 -16 -28 -64 -45 -105 -17 -41
-38 -88 -45 -105 -13 -28 -120 -280 -152 -355 -15 -37 -28 -65 -62 -142 -12
-26 -21 -50 -21 -53 0 -2 -13 -33 -29 -67 -16 -35 -47 -108 -70 -163 -23 -55
-46 -109 -51 -120 -29 -63 -77 -171 -78 -177 -1 -5 -14 -34 -28 -65 -14 -32
-34 -78 -44 -103 -10 -25 -104 -243 -209 -485 -195 -447 -202 -464 -251 -570
-15 -33 -34 -76 -43 -95 -110 -248 -258 -539 -333 -654 -37 -55 -69 -103 -73
-106 -4 -3 -14 -17 -24 -33 -32 -50 -150 -168 -213 -213 -98 -70 -258 -136
-384 -157 -79 -14 -207 -39 -221 -43 -12 -3 -15 -23 -15 -109 0 -99 2 -105 21
-105 33 -1 2506 -1 2553 0 l42 0 0 110 0 110 -72 1 c-100 2 -162 8 -234 23
-12 2 -37 7 -55 10 -19 3 -45 8 -59 11 -14 3 -36 8 -50 11 -68 13 -151 40
-205 65 -121 56 -225 187 -263 329 -2 8 -5 49 -7 90 -6 125 55 326 217 720 59
142 267 636 293 695 7 17 66 155 130 308 l118 277 1607 0 1607 0 26 -62 c230
-549 468 -1133 529 -1298 11 -30 26 -68 33 -85 25 -61 96 -292 113 -375 24
-107 26 -260 6 -337 -35 -134 -157 -255 -316 -314 -63 -23 -239 -55 -358 -64
-109 -9 -134 -12 -141 -13 -9 -3 -7 -202 2 -208 6 -4 2571 -7 3215 -4 l60 0 0
110 0 110 -55 0 c-104 1 -193 17 -333 60 -54 17 -99 30 -100 30 -2 -1 -41 18
-87 40 -251 123 -399 297 -616 725 -170 337 -263 548 -741 1690 -163 391 -304
728 -314 750 -10 22 -83 198 -163 390 -80 193 -154 368 -163 390 -10 22 -18
42 -19 45 -1 3 -6 16 -12 30 -6 14 -93 221 -192 460 -100 239 -188 449 -195
465 -8 17 -71 167 -141 335 -276 660 -367 876 -380 905 -7 17 -102 242 -210
500 -109 259 -211 502 -227 540 -16 39 -35 86 -43 106 -7 19 -22 55 -33 80
-22 48 -77 180 -204 483 -66 157 -87 200 -103 202 -11 1 -59 5 -108 7 -74 4
-89 2 -96 -12z m-6 -2406 c109 -258 206 -488 215 -510 10 -22 64 -150 120
-285 56 -135 110 -263 120 -285 10 -22 30 -69 45 -105 14 -36 32 -78 40 -95 7
-16 41 -97 75 -180 33 -82 69 -168 79 -190 10 -22 51 -119 91 -215 40 -96 80
-193 90 -215 9 -22 36 -87 60 -145 23 -58 48 -118 55 -135 8 -16 23 -55 35
-85 11 -30 27 -68 35 -85 31 -69 116 -288 112 -291 -7 -7 -2661 -2 -2799 5
-13 1 -3 32 53 164 39 89 76 176 83 192 8 17 58 131 111 255 141 326 194 450
216 497 10 23 19 44 19 47 0 3 14 36 31 73 17 38 35 77 39 88 4 11 90 209 190
440 100 231 241 555 312 720 72 165 139 320 150 345 11 25 26 59 33 75 8 17
22 50 33 75 93 217 146 329 152 323 4 -4 96 -219 205 -478z"/>
</g>
</svg>
